<svg xmlns="http://www.w3.org/2000/svg" width="1100" height="520" viewBox="0 0 1100 520" role="img"><title>Kafka/Flink soak accounting and lag</title><rect width="1100" height="520" rx="20" fill="#07111f"/><style>.title{font:700 25px system-ui;fill:#f8fafc}.meta,.small{font:12px system-ui;fill:#94a3b8}.value{font:700 30px system-ui;fill:#22d3ee}</style><text x="40" y="40" class="title">Kafka/Flink soak accounting and final lag</text><text x="40" y="72" class="meta">Test date: 2026-07-11 · Host: local Docker · Workload: kafka-flink-100kb-600rps-30m</text><text x="40" y="92" class="meta">Status: LIVE_LOCAL_VERIFIED · Raw: evidence/kafka-soak/producer-results.json + consumer-results.json</text><path d="M70 150V380H710" fill="none" stroke="#334155" stroke-width="2"/><rect x="90" y="150.0" width="140" height="230.0" rx="8" fill="#22d3ee"/><text x="160" y="138.0" text-anchor="middle" class="small">1,080,001</text><text x="160" y="405" text-anchor="middle" class="small">Inputs</text><rect x="300" y="152.3" width="140" height="227.7" rx="8" fill="#22d3ee"/><text x="370" y="140.3" text-anchor="middle" class="small">1,069,201</text><text x="370" y="405" text-anchor="middle" class="small">Outputs</text><rect x="510" y="377.0" width="140" height="3.0" rx="8" fill="#22d3ee"/><text x="580" y="365.0" text-anchor="middle" class="small">10,800</text><text x="580" y="405" text-anchor="middle" class="small">Intentional failures</text><rect x="760" y="150" width="290" height="230" rx="16" fill="#101d30" stroke="#334155"/><text x="790" y="190" class="small">Raw-topic lag timeline</text><text x="810" y="250" class="value">0</text><text x="810" y="280" class="small">start</text><path d="M860 245 H940" stroke="#60a5fa" stroke-width="4"/><text x="970" y="250" class="value">0</text><text x="970" y="280" class="small">end</text><text x="790" y="330" class="small">Final accounting: 1,069,201 + 10,800 = 1,080,001</text><text x="40" y="470" class="meta">Counts use separate scales for readability; failure bar is intentionally small.</text><text x="40" y="498" class="meta">Not a universal throughput guarantee.</text></svg>