<svg xmlns="http://www.w3.org/2000/svg" width="1100" height="520" viewBox="0 0 1100 520" role="img"><title>Mean latency versus input size</title><rect width="1100" height="520" rx="20" fill="#07111f"/><style>.title{font:700 25px system-ui;fill:#f8fafc}.meta,.small{font:12px system-ui;fill:#94a3b8}.legend{font:600 13px system-ui}</style><text x="40" y="40" class="title">Mean latency versus input size</text><text x="40" y="72" class="meta">Test date: 2026-07-18 · Host: Windows 11 / Intel Core Ultra 9 285H / JDK 21 / G1</text><text x="40" y="90" class="meta">Workload: core-1m-to-64m-976-fields-fixed-output · Status: MEASURED</text><text x="40" y="108" class="meta">Raw evidence: evidence/payload-scaling/results.csv</text><path d="M88 150V410H1018" fill="none" stroke="#334155" stroke-width="2"/><polyline points="88.0,404.3 243.0,400.8 398.0,395.7 553.0,375.9 708.0,345.5 863.0,288.0 1018.0,177.9" fill="none" stroke="#22d3ee" stroke-width="4"/><circle cx="88.0" cy="404.3" r="5" fill="#22d3ee"/><text x="88.0" y="393.3" text-anchor="middle" class="small">0.473</text><circle cx="243.0" cy="400.8" r="5" fill="#22d3ee"/><text x="243.0" y="389.8" text-anchor="middle" class="small">0.772</text><circle cx="398.0" cy="395.7" r="5" fill="#22d3ee"/><text x="398.0" y="384.7" text-anchor="middle" class="small">1.190</text><circle cx="553.0" cy="375.9" r="5" fill="#22d3ee"/><text x="553.0" y="364.9" text-anchor="middle" class="small">2.849</text><circle cx="708.0" cy="345.5" r="5" fill="#22d3ee"/><text x="708.0" y="334.5" text-anchor="middle" class="small">5.387</text><circle cx="863.0" cy="288.0" r="5" fill="#22d3ee"/><text x="863.0" y="277.0" text-anchor="middle" class="small">10.185</text><circle cx="1018.0" cy="177.9" r="5" fill="#22d3ee"/><text x="1018.0" y="166.9" text-anchor="middle" class="small">19.387</text><text x="120" y="126" class="legend" fill="#22d3ee">mean ms/op</text><text x="88.0" y="438" text-anchor="middle" class="small">1 MiB</text><text x="243.0" y="438" text-anchor="middle" class="small">2 MiB</text><text x="398.0" y="438" text-anchor="middle" class="small">4 MiB</text><text x="553.0" y="438" text-anchor="middle" class="small">8 MiB</text><text x="708.0" y="438" text-anchor="middle" class="small">16 MiB</text><text x="863.0" y="438" text-anchor="middle" class="small">32 MiB</text><text x="1018.0" y="438" text-anchor="middle" class="small">64 MiB</text><text x="40" y="470" class="meta">Mean milliseconds per operation</text><text x="40" y="498" class="meta">Not a universal throughput guarantee.</text></svg>