<svg xmlns="http://www.w3.org/2000/svg" width="900" height="420" viewBox="0 0 900 420" role="img"><title>Mean execution time by payload size</title><rect width="900" height="420" rx="20" fill="#07111f"/><style>.h{font:700 24px system-ui;fill:#f8fafc}.s{font:13px system-ui;fill:#94a3b8}</style><text x="40" y="43" class="h">Mean execution time by payload size</text><text x="40" y="405" class="s">Mean milliseconds per operation</text><path d="M80 70V340H840" fill="none" stroke="#475569" stroke-width="2"/><polyline points="80.0,333.9 206.7,330.0 333.3,324.6 460.0,303.3 586.7,270.5 713.3,208.7 840.0,90.0" fill="none" stroke="#22d3ee" stroke-width="4"/><circle cx="80.0" cy="333.9" r="5" fill="#22d3ee"/><text x="80.0" y="378" text-anchor="middle" class="s">1 MiB</text><text x="80.0" y="321.9" text-anchor="middle" class="s">0.473</text><circle cx="206.7" cy="330.0" r="5" fill="#22d3ee"/><text x="206.7" y="378" text-anchor="middle" class="s">2 MiB</text><text x="206.7" y="318.0" text-anchor="middle" class="s">0.772</text><circle cx="333.3" cy="324.6" r="5" fill="#22d3ee"/><text x="333.3" y="378" text-anchor="middle" class="s">4 MiB</text><text x="333.3" y="312.6" text-anchor="middle" class="s">1.190</text><circle cx="460.0" cy="303.3" r="5" fill="#22d3ee"/><text x="460.0" y="378" text-anchor="middle" class="s">8 MiB</text><text x="460.0" y="291.3" text-anchor="middle" class="s">2.849</text><circle cx="586.7" cy="270.5" r="5" fill="#22d3ee"/><text x="586.7" y="378" text-anchor="middle" class="s">16 MiB</text><text x="586.7" y="258.5" text-anchor="middle" class="s">5.387</text><circle cx="713.3" cy="208.7" r="5" fill="#22d3ee"/><text x="713.3" y="378" text-anchor="middle" class="s">32 MiB</text><text x="713.3" y="196.7" text-anchor="middle" class="s">10.185</text><circle cx="840.0" cy="90.0" r="5" fill="#22d3ee"/><text x="840.0" y="378" text-anchor="middle" class="s">64 MiB</text><text x="840.0" y="78.0" text-anchor="middle" class="s">19.387</text></svg>
