<svg xmlns="http://www.w3.org/2000/svg" width="1100" height="520" viewBox="0 0 1100 520" role="img"><title>Representative p95 and p99 latency</title><rect width="1100" height="520" rx="20" fill="#07111f"/><style>.title{font:700 25px system-ui;fill:#f8fafc}.meta,.small{font:12px system-ui;fill:#94a3b8}.legend{font:600 13px system-ui}</style><text x="40" y="40" class="title">Representative p95 and p99 latency</text><text x="40" y="72" class="meta">Test date: 2026-07-18 · Host: Windows 11 / Intel Core Ultra 9 285H / JDK 21 / G1</text><text x="40" y="90" class="meta">Workload: core-1m-to-64m-976-fields-fixed-output · Status: MEASURED</text><text x="40" y="108" class="meta">Raw evidence: evidence/payload-scaling/results.csv</text><path d="M88 150V410H1018" fill="none" stroke="#334155" stroke-width="2"/><polyline points="88.0,404.4 398.0,372.4 708.0,291.3 1018.0,196.3" fill="none" stroke="#60a5fa" stroke-width="4"/><circle cx="88.0" cy="404.4" r="5" fill="#60a5fa"/><text x="88.0" y="393.4" text-anchor="middle" class="small">1,046.528</text><circle cx="398.0" cy="372.4" r="5" fill="#60a5fa"/><text x="398.0" y="361.4" text-anchor="middle" class="small">6,971.392</text><circle cx="708.0" cy="291.3" r="5" fill="#60a5fa"/><text x="708.0" y="280.3" text-anchor="middle" class="small">22,025.011</text><circle cx="1018.0" cy="196.3" r="5" fill="#60a5fa"/><text x="1018.0" y="185.3" text-anchor="middle" class="small">39,649.280</text><text x="108" y="126" class="legend" fill="#60a5fa">p95 µs</text><polyline points="88.0,401.5 398.0,365.9 708.0,276.2 1018.0,177.9" fill="none" stroke="#fbbf24" stroke-width="4"/><circle cx="88.0" cy="401.5" r="5" fill="#fbbf24"/><text x="88.0" y="390.5" text-anchor="middle" class="small">1,572.864</text><circle cx="398.0" cy="365.9" r="5" fill="#fbbf24"/><text x="398.0" y="354.9" text-anchor="middle" class="small">8,174.961</text><circle cx="708.0" cy="276.2" r="5" fill="#fbbf24"/><text x="708.0" y="265.2" text-anchor="middle" class="small">24,832.573</text><circle cx="1018.0" cy="177.9" r="5" fill="#fbbf24"/><text x="1018.0" y="166.9" text-anchor="middle" class="small">43,072.881</text><text x="132" y="126" class="legend" fill="#fbbf24">p99 µs</text><text x="88.0" y="438" text-anchor="middle" class="small">1 MiB</text><text x="398.0" y="438" text-anchor="middle" class="small">8 MiB</text><text x="708.0" y="438" text-anchor="middle" class="small">32 MiB</text><text x="1018.0" y="438" text-anchor="middle" class="small">64 MiB</text><text x="40" y="470" class="meta">Microseconds at representative checkpoint sizes</text><text x="40" y="498" class="meta">Not a universal throughput guarantee.</text></svg>